<?xml version="1.0" standalone="no"?>
<!DOCTYPE svg PUBLIC "-//W3C//DTD SVG 20010904//EN"
 "http://www.w3.org/TR/2001/REC-SVG-20010904/DTD/svg10.dtd">
<svg version="1.0" xmlns="http://www.w3.org/2000/svg"
 width="120.000000pt" height="58.000000pt" viewBox="0 0 120.000000 58.000000"
 preserveAspectRatio="xMidYMid meet">

<g transform="translate(0.000000,58.000000) scale(0.100000,-0.100000)"
fill="#000000" stroke="none">
<path d="M353 458 c-24 -27 -43 -62 -43 -80 0 -7 12 7 26 32 35 61 64 79 64
40 0 -23 -45 -134 -66 -164 -13 -18 -14 -18 -20 -2 -4 11 -1 22 7 27 9 5 10 9
2 9 -6 0 -14 10 -16 23 l-4 22 -2 -22 c-1 -29 -5 -29 -44 1 -65 48 -169 62
-200 28 -10 -10 -17 -24 -17 -30 0 -16 41 -42 65 -41 13 0 9 4 -13 10 -24 7
-32 15 -32 33 0 13 7 27 16 30 43 16 136 -5 176 -41 20 -18 20 -18 -18 -24
-36 -6 -35 -6 9 -4 51 2 67 -11 67 -54 0 -20 -6 -21 -86 -21 -61 0 -83 -3 -78
-11 5 -8 29 -10 75 -5 l68 6 -29 -32 c-33 -35 -54 -85 -40 -93 9 -6 44 37 76
93 10 18 28 35 39 37 48 10 305 26 484 30 107 3 196 7 199 10 3 3 -65 5 -151
5 l-157 0 0 25 c0 29 -16 32 -42 8 -17 -15 -18 -15 -18 5 0 30 -11 28 -42 -10
l-27 -33 6 43 c5 38 4 42 -15 42 -12 0 -25 -6 -29 -12 -5 -7 -23 -26 -41 -43
l-33 -30 6 45 6 45 -18 -44 c-29 -72 -61 -59 -33 13 15 40 -4 31 -46 -19 -20
-25 -38 -44 -40 -43 -1 2 11 33 28 68 51 105 38 190 -19 128z m198 -181 c-18
-18 -25 1 -11 30 l14 28 4 -24 c2 -13 -1 -28 -7 -34z m26 31 c-3 -8 -6 -5 -6
6 -1 11 2 17 5 13 3 -3 4 -12 1 -19z m63 -13 c0 -16 -6 -25 -15 -25 -18 0 -19
4 -3 30 16 26 18 25 18 -5z m-234 -20 c0 -32 -2 -35 -28 -35 l-29 0 27 35 c14
19 27 35 28 35 0 0 1 -16 2 -35z m294 15 c0 -14 -7 -20 -22 -20 -20 0 -21 1
-3 20 10 11 20 20 22 20 1 0 3 -9 3 -20z m-180 -20 c0 -5 -2 -10 -4 -10 -2 0
-12 -3 -22 -7 -16 -6 -17 -5 -4 10 17 19 30 22 30 7z m-256 -105 c-9 -14 -18
-25 -21 -25 -5 0 5 18 20 38 17 22 18 13 1 -13z"/>
<path d="M30 210 c20 -13 90 -13 90 0 0 6 -24 10 -52 10 -38 0 -49 -3 -38 -10z"/>
<path d="M8 193 c7 -3 16 -2 19 1 4 3 -2 6 -13 5 -11 0 -14 -3 -6 -6z"/>
</g>
</svg>
